<svg id="Layer_1" data-name="Layer 1" xmlns="http://www.w3.org/2000/svg" viewBox="0 0 588.46 94.22"><defs><style>.cls-1{fill:#e21017;}.cls-2{fill:#9a9999;}</style></defs><path class="cls-1" d="M117.43,63.12H131.5c0,6.24,5.16,9.25,10.87,9.25,5.26,0,10.39-2.78,10.39-7.59,0-5-5.88-6.38-12.88-8-9.73-2.4-21.56-5.23-21.56-19.14,0-12.38,9.13-19.36,23.42-19.36,14.84,0,23.27,7.93,23.27,20.79h-13.8c0-5.56-4.58-8.17-9.8-8.17-4.53,0-9.12,1.92-9.12,6.15,0,4.54,5.61,5.92,12.44,7.55,9.85,2.49,22.2,5.56,22.2,20,0,14-11.11,20.71-24.47,20.71C127.64,85.32,117.43,77,117.43,63.12Z"/><path class="cls-1" d="M202.88,72.05V84h-9.57c-10.95,0-17.69-6.73-17.69-17.78V45.06h-9V42.15l19.67-20.91h2.57v13H202.6V45.06H189.09V64.47c0,4.81,2.77,7.58,7.67,7.58Z"/><path class="cls-1" d="M258.63,34.16V84H248.07l-1.16-4.45a24.2,24.2,0,0,1-16.13,5.94c-15,0-26.13-11.31-26.13-26.39s11.14-26.23,26.13-26.23a24.29,24.29,0,0,1,16.36,6.09l1.44-4.76Zm-13.2,24.9a13.57,13.57,0,1,0-27.13,0,13.57,13.57,0,1,0,27.13,0Z"/><path class="cls-1" d="M298.34,72.05V84h-9.57c-11,0-17.69-6.73-17.69-17.78V45.06h-9V42.15l19.66-20.91h2.58v13h13.74V45.06H284.55V64.47c0,4.81,2.76,7.58,7.67,7.58Z"/><path class="cls-1" d="M322.45,85.44c-12.5,0-20.85-7.13-20.92-17.8h13.13c.07,4.43,3.46,6.64,8.29,6.64,3.74,0,7.09-1.69,7.09-5s-4.32-4.43-9.59-5.31c-7.95-1.33-18.07-3.46-18.07-15.19,0-9.43,8-15.93,20-15.93s19.91,6.69,20,16.64H329.6c-.05-4-2.83-5.91-7.52-5.91-4.19,0-6.67,1.92-6.67,4.77,0,3.32,4.26,4.09,9.43,5,8.12,1.46,18.49,3.18,18.49,15.31,0,10.16-8.31,16.78-20.88,16.78Z"/><path class="cls-1" d="M386.84,50c5.71,3,8.94,8.59,8.94,15.42,0,10.35-9.1,18.63-20.32,18.63H348V19.48h26.69c11.14,0,19.41,7.1,19.41,16.6A17,17,0,0,1,386.84,50Zm-12.7,21.23c4.6,0,7.62-3,7.62-7.28s-3-7.2-7.62-7.2h-12.4V71.22Zm6.43-33c0-4-2.81-6.88-7.19-6.88H361.74V45.15h11.64c4.4,0,7.19-2.86,7.19-6.89Z"/><path class="cls-1" d="M398.43,59.14c0-15.11,11.49-26.31,26.92-26.31s26.92,11.22,26.92,26.31S440.7,85.45,425.35,85.45,398.43,74.15,398.43,59.14Zm40.19,0c0-8.07-5.51-13.65-13.27-13.65s-13.28,5.58-13.28,13.65,5.51,13.65,13.28,13.65S438.62,67.2,438.62,59.14Z"/><path class="cls-1" d="M530.12,52.81V84H516.66V55c0-6.65-2.61-10.15-7.49-10.15-6,0-9.57,4.42-9.57,12.22V84H486.47V55c0-6.65-2.53-10.15-7.36-10.15-6.08,0-9.72,4.42-9.72,12.22V84H455.92V34.24h9.41l2.53,6.17a19.14,19.14,0,0,1,14.85-7.36,16.17,16.17,0,0,1,14.46,8,18.85,18.85,0,0,1,15.41-8C522.89,33.05,530.12,41.14,530.12,52.81Z"/><path class="cls-1" d="M588.46,59c0,15.07-11,26.31-26.18,26.31a23.87,23.87,0,0,1-15.59-5.57l-1.59,4.16h-9.94V30.77l11.78-12.53h1.76l-.08,18.59a24,24,0,0,1,13.66-4.1C577.46,32.73,588.46,43.94,588.46,59Zm-13.72,0a13.57,13.57,0,1,0-27.13,0,13.57,13.57,0,1,0,27.13,0Z"/><path class="cls-2" d="M56.36,56.36a6.54,6.54,0,0,0,.11-9.22l-9.33,9.33A6.54,6.54,0,0,0,56.36,56.36Z"/><path class="cls-2" d="M75.49,75.49C62.17,88.81,40.77,89,27.67,75.94l-6.14,6.14A41.46,41.46,0,0,0,51.41,94.22a42.92,42.92,0,0,0,30.11-12.7c16.69-16.68,16.94-43.59.56-60l-6.14,6.14C89,40.77,88.81,62.17,75.49,75.49Z"/><path class="cls-2" d="M62.91,62.91a15.88,15.88,0,0,1-22.43.23l-6.14,6.14a23.91,23.91,0,0,0,17.22,7A24.81,24.81,0,0,0,69.28,34.34l-6.14,6.14A15.88,15.88,0,0,1,62.91,62.91Z"/><path class="cls-1" d="M21.51,82.06C5.11,65.66,5.35,38.73,22,22s43.62-16.93,60-.53l0,0,6.67-6.66,0,0c-20-20-52.83-19.75-73.23.65S-5.2,68.68,14.84,88.72l0,0,6.66-6.67Z"/><path class="cls-1" d="M34.31,69.25A24.71,24.71,0,0,1,69.25,34.31l0,0,6.66-6.67,0,0c-13.1-13.1-34.52-12.91-47.85.42s-13.52,34.75-.42,47.85l0,0,6.67-6.66Z"/><path class="cls-1" d="M47.12,56.45a6.6,6.6,0,0,1,9.33-9.33s0,0,0,0l6.67-6.66,0,0A16,16,0,0,0,40.45,63.11l0,0,6.66-6.67Z"/></svg>